<svg version="1.1" id="Layer_1" xmlns="http://www.w3.org/2000/svg" x="0" y="0" viewBox="0 0 283.5 129.5" xml:space="preserve"><style type="text/css">.st2,.st3{fill:#fff;fill-rule:evenodd;clip-rule:evenodd}.st3{fill:#d8dcdd}</style><linearGradient id="SVGID_1_" gradientUnits="userSpaceOnUse" x1="236.591" y1="39.043" x2="236.591" y2="94.588"><stop offset="0" stop-color="#d8dcdd" stop-opacity="0"/><stop offset=".487" stop-color="#b8bdc0" stop-opacity=".487"/><stop offset="1" stop-color="#9aa3a8"/></linearGradient><path d="M259.8 38.7L225 73.5c-7.6 7.5-15.2 12.7-23.3 16.4-3.4 1.6-7.3 3.3-11.9 4.5h28.1c10.5 0 20.1-10.2 22.2-12.3l43.5-43.5h-23.8z" fill="url(#SVGID_1_)"/><linearGradient id="SVGID_00000069385313984555277500000010862864402990602131_" gradientUnits="userSpaceOnUse" x1="67.915" y1="23.723" x2="67.915" y2=".117"><stop offset="0" stop-color="#d8dcdd" stop-opacity="0"/><stop offset=".487" stop-color="#b8bdc0" stop-opacity=".487"/><stop offset="1" stop-color="#9aa3a8"/></linearGradient><path d="M70.4 0C60 0 50.3 10.2 48.2 12.3l-10.9 11H61l2.3-2.3C74.4 9.9 85.8 3.9 98.5 0H70.4z" fill="url(#SVGID_00000069385313984555277500000010862864402990602131_)"/><path class="st2" d="M165.3 27.6c-2.7 0-4.4 1.3-5.5 2.4l-46.2 46.2h17.7c2.1 0 4.3-1 5.5-2.2l34.6-34.6h14v36.8h14.5V39.5h19.6V27.6h-54.2zM54.6 42.2c0-8-6.5-14.5-14.5-14.5H0v48.6h14.5V39.5H37c1.7 0 3.1 1.4 3.1 3.1v33.7h14.5V42.2z"/><path class="st3" d="M172.7 95.2c0-8-6.5-14.5-14.5-14.5h-40.1v48.6h14.5V92.5h22.5c1.7 0 3.1 1.4 3.1 3.1v33.7h14.5V95.2zm-158.2.4c0-1.7 1.4-3.1 3.1-3.1h37V80.7H14.5C6.5 80.7 0 87.2 0 95.2v19.6c0 8 6.5 14.5 14.5 14.5h40.1V99.7H24.2v10.5h15.9v7.2H17.6c-1.7 0-3.1-1.4-3.1-3.1V95.6zm99-.6c-.1-7.9-5.9-14.4-13.8-14.4H73.5c-8 0-14.5 6.5-14.5 14.5v19.6c0 8 6.5 14.5 14.5 14.5h40.1v-11.8h-37c-1.7 0-3.1-1.4-3.1-3.1v-4.1h40.1l-.1-15.2zm-40 4.7v-4.1c0-1.7 1.4-3.1 3.1-3.1H97c1.7 0 3.1 1.4 3.1 3.1v4.1H73.5z"/><path class="st2" d="M113.5 42c-.1-7.9-5.9-14.4-13.8-14.4H73.5c-8 0-14.5 6.5-14.5 14.5v19.6c0 8 6.5 14.5 14.5 14.5h40.1V64.5h-37c-1.7 0-3.1-1.4-3.1-3.1v-4.1h40.1l-.1-15.3zm-40 4.7v-4.1c0-1.7 1.4-3.1 3.1-3.1H97c1.7 0 3.1 1.4 3.1 3.1v4.1H73.5z"/><path d="M185.5 101.4h1.3v2.9h3.3v-2.9h1.3v7.2h-1.3v-3.2h-3.3v3.2h-1.3v-7.2zm8.3 0h4.7v1.1H195v1.8h3.3v1.1H195v2h3.6v1.1h-4.9v-7.1zm9.2 0h1.1l3.1 7.2h-1.4l-.7-1.6H202l-.6 1.6H200l3-7.2zm1.6 4.4l-1.1-2.9-1.1 2.9h2.2zm4-4.4h1.3v6.1h3v1.1h-4.3v-7.2zm6.6 1.1H213v-1.1h5.6v1.1h-2.2v6.1h-1.3v-6.1zm5.1-1.1h1.3v2.9h3.3v-2.9h1.3v7.2h-1.3v-3.2h-3.3v3.2h-1.3v-7.2zm16.5 5.4l1.7 1.7h-1.6l-.8-.8c-.2.3-.5.5-.9.7-.3.2-.8.3-1.3.3-.3 0-.6 0-.9-.1-.3-.1-.5-.2-.8-.4-.2-.2-.4-.4-.5-.7-.1-.3-.2-.6-.2-.9 0-.3 0-.5.1-.7l.3-.6c.1-.2.3-.3.5-.4l.6-.3c-.2-.2-.4-.5-.6-.8-.1-.3-.2-.5-.2-.9 0-.3.1-.6.2-.8.1-.2.3-.4.5-.6.2-.1.4-.3.6-.3.2-.1.5-.1.7-.1.3 0 .5 0 .7.1l.6.3c.2.1.3.3.4.5.1.2.2.5.2.8 0 .2 0 .4-.1.6-.1.2-.2.4-.3.5-.1.2-.3.3-.5.4l-.6.3 1.2 1.2.8-1.3h1.4l-1.2 2.3zm-3-1.4c-.1 0-.3.1-.4.2-.1.1-.2.1-.3.2-.1.1-.2.2-.2.3-.1.1-.1.3-.1.5s0 .3.1.5c.1.1.2.3.3.4.1.1.2.2.4.2.1.1.3.1.4.1.3 0 .5-.1.8-.2.2-.1.4-.3.6-.5l-1.6-1.7zm.6-3.2c-.2 0-.4.1-.6.2-.2.1-.2.3-.2.6 0 .2.1.4.2.6.1.2.3.4.5.6.1-.1.3-.1.4-.2l.3-.3c.1-.1.2-.2.2-.3.1-.1.1-.2.1-.4s-.1-.4-.2-.6c-.3-.2-.5-.2-.7-.2zm-48.9 9.6h1.3v6.1h3v1.1h-4.3v-7.2zm6 0h1.3v7.2h-1.3v-7.2zm3.6 0h4.6v1.1h-3.3v2h3.1v1.1h-3.1v3h-1.3v-7.2zm6.6 0h4.7v1.1H203v1.8h3.3v1.1H203v2h3.6v1.1h-4.9v-7.1zm10.6 1.5c-.1-.2-.3-.3-.6-.4-.2-.1-.5-.2-.7-.2-.1 0-.3 0-.4.1-.1 0-.3.1-.4.2l-.3.3c-.1.1-.1.3-.1.5s0 .3.1.4l.3.3c.1.1.3.2.4.2.2.1.4.1.6.2.2.1.5.2.7.3.2.1.5.2.7.4.2.2.4.4.5.6.1.2.2.5.2.9s-.1.7-.2 1c-.1.3-.3.5-.6.7-.2.2-.5.3-.8.4-.3.1-.6.1-1 .1-.5 0-.9-.1-1.4-.3-.4-.2-.8-.4-1.1-.8l.9-.9c.2.2.4.4.7.6.3.1.6.2.9.2.1 0 .3 0 .5-.1.2 0 .3-.1.4-.2l.3-.3c.1-.1.1-.3.1-.5s0-.3-.1-.5c-.1-.1-.2-.2-.4-.3-.1-.1-.3-.2-.5-.2-.2-.1-.4-.1-.6-.2-.2-.1-.4-.1-.6-.2-.2-.1-.4-.2-.6-.4-.2-.2-.3-.3-.4-.6-.1-.2-.2-.5-.2-.8 0-.4.1-.7.2-.9.2-.3.3-.5.6-.7.2-.2.5-.3.8-.4.3-.1.6-.1 1-.1s.7.1 1.1.2c.4.1.7.3 1 .6l-1 .8zm4.2-.4h-2.2v-1.1h5.6v1.1h-2.2v6.1h-1.3v-6.1zm6.7 2.9l-2.7-4.1h1.6l1.8 3 1.8-3h1.5l-2.7 4.1v3.1h-1.3v-3.1zm5.4-4h1.3v6.1h3v1.1h-4.3v-7.2zm5.9 0h4.7v1.1h-3.5v1.8h3.3v1.1h-3.3v2h3.6v1.1h-4.9v-7.1zm-43.8 12c-.2-.3-.4-.4-.7-.6-.3-.1-.6-.2-.9-.2-.4 0-.7.1-1 .2-.3.1-.6.3-.8.6-.2.2-.4.5-.5.8-.1.3-.2.7-.2 1 0 .4.1.8.2 1.1.1.3.3.6.5.8.2.2.5.4.8.5.3.1.6.2 1 .2s.7-.1 1-.2c.3-.2.5-.4.7-.6l1 .7c-.3.4-.7.7-1.2.9-.5.2-1 .3-1.6.3-.6 0-1.1-.1-1.5-.3-.5-.2-.9-.4-1.2-.8-.3-.3-.6-.7-.8-1.2-.2-.5-.3-1-.3-1.5 0-.6.1-1.1.3-1.6.2-.5.5-.9.8-1.2.3-.3.8-.6 1.2-.8.5-.2 1-.3 1.5-.3.2 0 .5 0 .7.1.2 0 .5.1.7.2l.6.3c.2.1.4.3.5.5l-.8 1.1zm2.6-1.7h1.3v6.1h3v1.1h-4.3v-7.2zm11.4 4.6c0 .4-.1.8-.2 1.2-.1.3-.3.6-.6.9l-.9.6c-.4.1-.7.2-1.1.2-.4 0-.8-.1-1.1-.2-.4-.1-.7-.3-.9-.6-.3-.2-.5-.5-.6-.9-.1-.4-.2-.7-.2-1.2v-4.6h1.3v4.5c0 .2 0 .4.1.6.1.2.1.4.3.6.1.2.3.3.5.4.2.1.5.2.8.2.3 0 .6 0 .8-.2.2-.1.4-.2.5-.4.1-.2.2-.3.3-.6.1-.2.1-.4.1-.6v-4.5h1.3v4.6zm2.3-4.6h2.8c.3 0 .5 0 .8.1.3.1.5.2.7.3.2.1.4.3.5.6.1.2.2.5.2.8 0 .4-.1.7-.3 1-.2.3-.5.5-.9.6.4.1.8.2 1.1.5.3.3.4.7.4 1.2 0 .4-.1.7-.2 1-.2.3-.4.5-.6.6-.3.2-.5.3-.9.4-.3.1-.7.1-1 .1H207v-7.2zm1.3 3h1.1c.4 0 .7-.1 1-.3.2-.2.3-.4.3-.7 0-.3-.1-.6-.3-.7-.2-.1-.6-.2-1.1-.2h-1v1.9zm0 3.2h1.6c.2 0 .4-.1.5-.1.2-.1.3-.2.4-.3.1-.1.2-.3.2-.6 0-.4-.1-.6-.4-.8-.3-.1-.6-.2-1.2-.2h-1.2v2zm9.7-4.7c-.1-.2-.3-.3-.6-.4-.2-.1-.5-.2-.7-.2-.1 0-.3 0-.4.1-.1 0-.3.1-.4.2l-.3.3c-.1.1-.1.3-.1.5s0 .3.1.4l.3.3c.1.1.3.2.4.2.2.1.4.1.6.2.2.1.5.2.7.3.2.1.5.2.7.4.2.2.4.4.5.6.1.2.2.5.2.9s-.1.7-.2 1c-.1.3-.3.5-.6.7-.2.2-.5.3-.8.4-.3.1-.7.1-1 .1-.5 0-.9-.1-1.4-.3-.4-.2-.8-.4-1.1-.8l.9-.9c.2.2.4.4.7.6.3.1.6.2.9.2.1 0 .3 0 .5-.1.2 0 .3-.1.4-.2l.3-.3c.1-.1.1-.3.1-.5s0-.3-.1-.5c-.1-.1-.2-.2-.4-.3-.1-.1-.3-.2-.5-.2-.2-.1-.4-.1-.6-.2-.2-.1-.4-.2-.6-.2-.2-.1-.4-.2-.6-.4-.2-.2-.3-.3-.4-.6-.1-.2-.2-.5-.2-.8 0-.4.1-.7.2-.9.2-.3.3-.5.6-.7.2-.2.5-.3.8-.4.3-.1.6-.1 1-.1s.7.1 1.1.2c.4.1.7.3 1 .6l-1 .8z" fill="#d8dcdd"/><linearGradient id="SVGID_00000112598589095427760770000018233707790489504440_" gradientUnits="userSpaceOnUse" x1="94.717" y1="-2.129" x2="190.388" y2="93.543"><stop offset=".216" stop-color="#d3126f"/><stop offset=".275" stop-color="#d46289"/><stop offset=".337" stop-color="#d58ea3"/><stop offset=".394" stop-color="#d7b0bb"/><stop offset=".444" stop-color="#d8c8ce"/><stop offset=".484" stop-color="#d8d7d9"/><stop offset=".51" stop-color="#d8dcdd"/><stop offset=".553" stop-color="#c8d5dd"/><stop offset=".641" stop-color="#9ec5dd"/><stop offset=".764" stop-color="#4aaedd"/><stop offset=".83" stop-color="#00a4e0"/></linearGradient><path d="M182.5 73.5l-61.2-61.2C119.2 10.2 109.6 0 99.1 0H70.2c15.1 2.7 24.9 9.9 36.1 21l61.2 61.2c2.1 2.1 11.7 12.3 22.2 12.3H218c-15.1-2.8-24.3-9.9-35.5-21z" fill="url(#SVGID_00000112598589095427760770000018233707790489504440_)"/><path class="st3" d="M137.6 52.3l10.5 10.5-5.7 5.7z"/></svg>